<svg id="Layer_1" height="512" viewBox="0 0 512 512" width="512" xmlns="http://www.w3.org/2000/svg" xmlns:xlink="http://www.w3.org/1999/xlink" data-name="Layer 1"><linearGradient id="GradientFill_1" gradientUnits="userSpaceOnUse" x1=".002" x2="511.998" y1="256" y2="256"><stop offset="0" stop-color="#00c2f3"/><stop offset="1" stop-color="#4764af"/></linearGradient><path d="m75.569 322.44a10.291 10.291 0 0 0 -10.245 10.289v104.309a10.23 10.23 0 0 0 10.245 10.217h60.2a10.224 10.224 0 0 0 10.238-10.217v-104.309a10.285 10.285 0 0 0 -10.238-10.289zm121.986-141.247a10.229 10.229 0 0 0 -10.239 10.217v245.628a10.229 10.229 0 0 0 10.239 10.217h60.213a10.234 10.234 0 0 0 10.239-10.217v-245.628a10.234 10.234 0 0 0 -10.239-10.217zm122 74.232a10.223 10.223 0 0 0 -10.238 10.216v171.4a10.224 10.224 0 0 0 10.238 10.217h60.2a10.232 10.232 0 0 0 10.252-10.217v-171.4a10.231 10.231 0 0 0 -10.252-10.216zm121.992-171.4a10.229 10.229 0 0 0 -10.238 10.217v342.796a10.229 10.229 0 0 0 10.238 10.217h60.213a10.224 10.224 0 0 0 10.24-10.217v-342.793a10.224 10.224 0 0 0 -10.24-10.217zm60.214 407.48a10.242 10.242 0 0 1 0 20.484h-465.922a35.882 35.882 0 0 1 -35.839-35.87v-465.894a10.238 10.238 0 0 1 20.476 0v465.894a15.427 15.427 0 0 0 15.361 15.389z" fill="url(#GradientFill_1)" fill-rule="evenodd"/></svg>