<svg id="Layer_1" height="512" viewBox="0 0 512 512" width="512" xmlns="http://www.w3.org/2000/svg" xmlns:xlink="http://www.w3.org/1999/xlink" data-name="Layer 1"><linearGradient id="GradientFill_1" gradientUnits="userSpaceOnUse" x1=".001" x2="511.998" y1="255.982" y2="255.982"><stop offset="0" stop-color="#00c2f3"/><stop offset="1" stop-color="#4764af"/></linearGradient><path d="m348.032 197.039h-71.559a12.961 12.961 0 0 0 -12.973 12.932v71.588a12.961 12.961 0 0 0 12.975 12.932h71.559a12.959 12.959 0 0 0 12.966-12.932v-71.588a12.96 12.96 0 0 0 -12.967-12.932zm0 112.455h-71.559a13.022 13.022 0 0 0 -12.975 13v71.517a12.976 12.976 0 0 0 12.975 13h71.559a12.974 12.974 0 0 0 12.967-13v-71.511a13.02 13.02 0 0 0 -12.967-13zm-112.5-112.455h-71.564a12.954 12.954 0 0 0 -12.968 12.932v71.588a12.954 12.954 0 0 0 12.967 12.932h71.559a12.961 12.961 0 0 0 12.974-12.932v-71.588a12.961 12.961 0 0 0 -12.975-12.932zm0 112.455h-71.564a13.015 13.015 0 0 0 -12.968 13.006v71.517a12.969 12.969 0 0 0 12.967 13h71.559a12.976 12.976 0 0 0 12.975-13v-71.517a13.022 13.022 0 0 0 -12.975-13zm227.827-228.338h-198.11a12 12 0 0 0 -12 12v19a12 12 0 0 0 12 12h198.11a12 12 0 0 0 12-12v-19a12 12 0 0 0 -12-12zm-295.048.214a21.291 21.291 0 1 0 21.27 21.291 21.329 21.329 0 0 0 -21.27-21.291zm-55.205 0a21.291 21.291 0 1 0 21.284 21.291 21.321 21.321 0 0 0 -21.284-21.291zm-55.184 0a21.291 21.291 0 1 0 21.269 21.291 21.329 21.329 0 0 0 -21.269-21.291zm444.078 62.3h-492v-51.012a31.055 31.055 0 0 1 31-31.007h430a31.051 31.051 0 0 1 31 31.007zm-31 306.643h-430a31 31 0 0 1 -31-30.936v-265.7h492v265.7a30.99 30.99 0 0 1 -31 30.936zm0-398.664a41.073 41.073 0 0 1 41 41.009v326.719a41.012 41.012 0 0 1 -41 40.938h-430a41.011 41.011 0 0 1 -41-40.938v-326.719a41.072 41.072 0 0 1 41-41.009z" fill="url(#GradientFill_1)" fill-rule="evenodd"/></svg>