<svg id="Layer_1" height="512" viewBox="0 0 512 512" width="512" xmlns="http://www.w3.org/2000/svg" xmlns:xlink="http://www.w3.org/1999/xlink" data-name="Layer 1"><linearGradient id="GradientFill_1" gradientUnits="userSpaceOnUse" x1="-.002" x2="512.002" y1="256" y2="256"><stop offset="0" stop-color="#00c2f3"/><stop offset="1" stop-color="#4764af"/></linearGradient><path d="m77.7 245.783h69.759a342 342 0 0 1 10.581-76.8 277.716 277.716 0 0 1 -44-21.362 177.712 177.712 0 0 0 -36.34 98.162zm90.249 0h176.1a322.95 322.95 0 0 0 -9.509-70.23l-.393.143a277.222 277.222 0 0 1 -78.147 11.217 277.209 277.209 0 0 1 -78.146-11.213l-.386-.143a322.449 322.449 0 0 0 -9.517 70.23zm196.588 0h69.774a177.727 177.727 0 0 0 -36.359-98.165 277.571 277.571 0 0 1 -43.982 21.362 343.22 343.22 0 0 1 10.567 76.8zm69.774 20.505h-69.772a341.882 341.882 0 0 1 -10.431 76.161 273.649 273.649 0 0 1 44.275 21.433 177.947 177.947 0 0 0 35.93-97.594zm-90.264 0h-176.1a322.254 322.254 0 0 0 9.381 69.659l.307-.071a279.3 279.3 0 0 1 156.722 0l.307.071a322.254 322.254 0 0 0 9.381-69.659zm-196.588 0h-69.759a177.73 177.73 0 0 0 35.929 97.594 272.945 272.945 0 0 1 44.261-21.433 341.882 341.882 0 0 1 -10.431-76.161zm166.69-179.188a178.389 178.389 0 0 1 68.137 42.652c.722.715 1.436 1.429 2.129 2.144a253.233 253.233 0 0 1 -36.337 17.433 230.531 230.531 0 0 0 -13.388-31.579 156.656 156.656 0 0 0 -20.541-30.65zm34.122 275a259.1 259.1 0 0 1 36.63 17.575c-.864.858-1.729 1.787-2.615 2.644a178.4 178.4 0 0 1 -68.137 42.653 159.463 159.463 0 0 0 20.541-30.722 223.572 223.572 0 0 0 13.581-32.15zm-150.413 62.868a178.388 178.388 0 0 1 -68.145-42.653c-.885-.857-1.757-1.786-2.614-2.644a259.1 259.1 0 0 1 36.63-17.575 225.393 225.393 0 0 0 13.581 32.15 159.162 159.162 0 0 0 20.548 30.722zm-33.936-275.635a254.092 254.092 0 0 1 -36.345-17.433c.7-.715 1.422-1.429 2.136-2.144a178.374 178.374 0 0 1 68.145-42.656 156.365 156.365 0 0 0 -20.548 30.65 230.531 230.531 0 0 0 -13.388 31.579zm152.606-22.148c-16.039-30.722-37.48-49.8-60.528-49.8s-44.489 19.076-60.528 49.8a208.78 208.78 0 0 0 -12.189 28.792l.329.071a254.23 254.23 0 0 0 72.388 10.36 254.23 254.23 0 0 0 72.388-10.36l.329-.071a208.78 208.78 0 0 0 -12.189-28.792zm-133.416 228.338a204.364 204.364 0 0 0 12.36 29.292c16.039 30.793 37.48 49.8 60.528 49.8s44.489-19 60.528-49.8a204.364 204.364 0 0 0 12.36-29.292l-.285-.071a259.581 259.581 0 0 0 -145.206 0zm72.888-298.569a199.071 199.071 0 1 1 -140.768 58.3 198.531 198.531 0 0 1 140.768-58.3zm0-56.942a256.066 256.066 0 1 1 -181.02 75.018 255.082 255.082 0 0 1 181.02-75.018z" fill="url(#GradientFill_1)" fill-rule="evenodd"/></svg>