<svg id="Layer_1" height="512" viewBox="0 0 512 512" width="512" xmlns="http://www.w3.org/2000/svg" xmlns:xlink="http://www.w3.org/1999/xlink" data-name="Layer 1"><linearGradient id="GradientFill_1" gradientUnits="userSpaceOnUse" x1="-.002" x2="512.004" y1="255.998" y2="255.998"><stop offset="0" stop-color="#00c2f3"/><stop offset="1" stop-color="#4764af"/></linearGradient><path d="m256 0c141.381 0 256 114.586 256 256.033 0 141.377-114.619 255.967-256 255.967s-256-114.59-256-255.967c0-141.447 114.621-256.033 256-256.033zm-54.311 354.691q2.3 5.639 4.854 10.81c13.057 26.432 30.576 42.781 49.457 42.781s36.4-16.349 49.458-42.781q2.55-5.164 4.855-10.811a158.648 158.648 0 0 0 -108.625 0zm103.77-208.2c-13.059-26.429-30.576-42.778-49.459-42.778s-36.4 16.349-49.458 42.782q-2.55 5.164-4.854 10.81a158.64 158.64 0 0 0 108.625 0q-2.3-5.64-4.855-10.81zm-116.39 5.545q2.469-6.043 5.212-11.6c8.3-16.806 18.464-30.151 29.913-38.884a157.013 157.013 0 0 0 -66.36 31.078 157.635 157.635 0 0 0 31.235 19.4zm35.125 258.4c-11.449-8.733-21.611-22.078-29.913-38.883q-2.74-5.547-5.212-11.6a157.611 157.611 0 0 0 -31.235 19.4 157.011 157.011 0 0 0 66.36 31.077zm98.739-50.48q-2.469 6.043-5.212 11.6c-8.3 16.805-18.463 30.15-29.912 38.883a157.007 157.007 0 0 0 66.36-31.078 157.689 157.689 0 0 0 -31.236-19.4zm-35.124-258.396c11.448 8.733 21.611 22.078 29.912 38.884q2.74 5.546 5.212 11.6a157.672 157.672 0 0 0 31.236-19.4 157.019 157.019 0 0 0 -66.36-31.078zm-117.209 161.292h-72.1a157.13 157.13 0 0 0 46.025 104.621q1.407 1.407 2.85 2.778a171.53 171.53 0 0 1 36.937-23.163c-8.108-24.312-13.07-53.185-13.709-84.236zm157.084 0h-143.37c.623 29.209 5.2 56.26 12.667 79a171.8 171.8 0 0 1 118.04 0c7.468-22.739 12.045-49.79 12.667-79zm85.813 0h-72.097c-.64 31.051-5.6 59.924-13.709 84.236a171.548 171.548 0 0 1 36.936 23.163q1.443-1.371 2.85-2.778a157.13 157.13 0 0 0 46.023-104.621zm-72.1-13.709h72.1a157.135 157.135 0 0 0 -46.025-104.621q-1.407-1.407-2.85-2.778a171.491 171.491 0 0 1 -36.937 23.163c8.108 24.313 13.07 53.186 13.71 84.236zm-157.085 0h143.376c-.622-29.208-5.2-56.259-12.667-79a171.816 171.816 0 0 1 -118.04 0c-7.467 22.739-12.044 49.79-12.667 79zm-85.813 0h72.1c.639-31.05 5.6-59.923 13.709-84.236a171.491 171.491 0 0 1 -36.937-23.163q-1.443 1.372-2.85 2.778a157.135 157.135 0 0 0 -46.021 104.621z" fill="url(#GradientFill_1)" fill-rule="evenodd"/></svg>