<svg id="Layer_1" height="512" viewBox="0 0 512 512" width="512" xmlns="http://www.w3.org/2000/svg" xmlns:xlink="http://www.w3.org/1999/xlink" data-name="Layer 1"><linearGradient id="GradientFill_1" gradientUnits="userSpaceOnUse" x1=".002" x2="512.001" y1="255.96" y2="255.96"><stop offset="0" stop-color="#00c2f3"/><stop offset="1" stop-color="#4764af"/></linearGradient><path d="m509.612 496.8a13.366 13.366 0 0 1 -11.6 6.216h-484.029a13.358 13.358 0 0 1 -11.6-6.216 13.53 13.53 0 0 1 -1.229-13.145l.944-2.144h507.802l.943 2.144a13.492 13.492 0 0 1 -1.228 13.145zm-4.094-25.791h-499.037l48.919-116.026c3.273-7.788 5.259-10.145 8.524-10.145h384.152c3.258 0 5.244 2.357 8.524 10.145l48.918 116.027zm-71.518-365.37v206.62h-356.01v-206.62h72.1a106.6 106.6 0 0 0 33.35 75.946 34.2 34.2 0 0 1 11.16 25.792v9a21.826 21.826 0 0 0 3.015 43.439h7.137l1.915 8.645a28 28 0 0 0 27.471 22.076h43.71a28 28 0 0 0 27.478-22.076l1.914-8.645h7.138a21.826 21.826 0 0 0 3.015-43.439v-9a34.291 34.291 0 0 1 11.152-25.792 106.534 106.534 0 0 0 33.372-75.946zm-178 20.648a10.967 10.967 0 1 0 -10.981-11 10.947 10.947 0 0 0 10.981 11zm58.381 100.313h-116.763a11.432 11.432 0 0 0 0 22.863h116.763a11.432 11.432 0 0 0 0-22.863zm-17.8 33.222h-81.159l1.429 6.43a17.6 17.6 0 0 0 17.29 13.861h43.71a17.632 17.632 0 0 0 17.311-13.861l1.415-6.43zm-40.581-250.922a95.615 95.615 0 0 0 -95.515 95.45 94.406 94.406 0 0 0 30.086 69.588 44.5 44.5 0 0 1 14.429 33.439v8.788h45.8v-80.09a21.387 21.387 0 1 1 10.4 0v80.09h45.8v-8.788a44.514 44.514 0 0 1 14.417-33.436 94.393 94.393 0 0 0 30.1-69.588 95.616 95.616 0 0 0 -95.517-95.453zm-200.2 82.59v234.91a8.124 8.124 0 0 0 8.116 8.073h384.16a8.12 8.12 0 0 0 8.116-8.073v-234.907a8.12 8.12 0 0 0 -8.116-8.073h-88.242a106.863 106.863 0 0 1 1.693 11.86h77.682a5.115 5.115 0 0 1 5.188 5.144v217.05a5.221 5.221 0 0 1 -5.188 5.216h-366.409a5.235 5.235 0 0 1 -5.215-5.216v-217.05a5.129 5.129 0 0 1 5.215-5.144h77.668a107.1 107.1 0 0 1 1.7-11.86h-88.245a8.124 8.124 0 0 0 -8.116 8.073zm280.85 302.642c-1.014-2.5-3.415-8.145-9.695-8.145h-141.918c-6.28 0-8.681 5.644-9.71 8.145l-20.019 47.439a12.309 12.309 0 0 0 11.3 17.076h178.78a12.309 12.309 0 0 0 11.3-17.076l-20.033-47.439zm10.281 53.226a1.573 1.573 0 0 0 .172-1.714l-20.048-47.511a18.194 18.194 0 0 0 -.8-1.786h-140.525c-.3.571-.658 1.429-.8 1.786l-20.04 47.511a1.881 1.881 0 0 0 1.722 2.572h178.776a1.6 1.6 0 0 0 1.55-.855z" fill="url(#GradientFill_1)" fill-rule="evenodd"/></svg>