<svg id="Layer_1" height="512" viewBox="0 0 512 512" width="512" xmlns="http://www.w3.org/2000/svg" xmlns:xlink="http://www.w3.org/1999/xlink" data-name="Layer 1"><linearGradient id="GradientFill_1" gradientUnits="userSpaceOnUse" x1=".25" x2="512.248" y1="256.501" y2="256.501"><stop offset="0" stop-color="#00c2f3"/><stop offset="1" stop-color="#4764af"/></linearGradient><path d="m256.249.5c141.384 0 256 114.587 256 256.034 0 141.377-114.615 255.964-256 255.964s-255.999-114.585-255.999-255.962c0-141.447 114.623-256.036 255.999-256.036zm0 257.713a53.142 53.142 0 1 0 -53.149-53.14 53.2 53.2 0 0 0 53.151 53.142zm0-139.514c-75.985 0-137.813 61.8-137.813 137.8a136.949 136.949 0 0 0 22.764 75.781 75.657 75.657 0 0 1 74.61-63.648h80.878a75.658 75.658 0 0 1 74.612 63.648 136.914 136.914 0 0 0 22.76-75.779c0-76-61.819-137.8-137.814-137.8zm0 295.292c86.847 0 157.5-70.636 157.5-157.492s-70.649-157.491-157.5-157.491-157.501 70.637-157.501 157.492 70.652 157.493 157.501 157.493z" fill="url(#GradientFill_1)" fill-rule="evenodd"/></svg>