<svg id="Layer_1" height="512" viewBox="0 0 512 512" width="512" xmlns="http://www.w3.org/2000/svg" xmlns:xlink="http://www.w3.org/1999/xlink" data-name="Layer 1"><linearGradient id="GradientFill_1" gradientUnits="userSpaceOnUse" x1=".013" x2="511.987" y1="256" y2="256"><stop offset="0" stop-color="#00c2f3"/><stop offset="1" stop-color="#4764af"/></linearGradient><path d="m316.562 62.675q8.709 2.719 16.959 6.145t16.349 7.68l44.758-32.133a9.89 9.89 0 0 1 12.772 1.033l.025-.025 59.216 59.216a9.923 9.923 0 0 1 .52 13.47l-31.641 44.074q4.253 8.087 7.68 16.346t6.149 16.968l54.335 8.922a9.9 9.9 0 0 1 8.3 10.263v83.249a9.888 9.888 0 0 1 -8.3 9.757v.011l-54.341 8.922q-2.721 8.709-6.145 16.959t-7.682 16.349l32.133 44.758a9.89 9.89 0 0 1 -1.033 12.767l.025.025-59.221 59.218a9.923 9.923 0 0 1 -13.47.52l-44.074-31.641q-8.088 4.251-16.346 7.68t-16.968 6.149l-8.922 54.335a9.9 9.9 0 0 1 -10.263 8.3h-83.249a9.888 9.888 0 0 1 -9.757-8.3h-.011l-8.922-54.341q-8.709-2.719-16.959-6.145t-16.349-7.682l-44.758 32.133a9.89 9.89 0 0 1 -12.767-1.033l-.025.025-59.216-59.216a9.922 9.922 0 0 1 -.52-13.47l31.641-44.074q-4.251-8.088-7.68-16.346t-6.148-16.969l-54.336-8.921a9.9 9.9 0 0 1 -8.295-10.263v-83.249a9.887 9.887 0 0 1 8.3-9.757v-.011l54.332-8.921q2.721-8.712 6.147-16.966t7.684-16.351l-32.128-44.75a9.89 9.89 0 0 1 1.033-12.767l-.025-.025 59.211-59.216a9.923 9.923 0 0 1 13.47-.52l44.078 31.643q8.088-4.253 16.348-7.681t16.962-6.145l8.922-54.34a9.9 9.9 0 0 1 9.768-8.308v-.026h83.744a9.924 9.924 0 0 1 9.883 9.033zm6.1 126.677a94.273 94.273 0 1 0 27.612 66.661 93.976 93.976 0 0 0 -27.612-66.661zm-66.662-47.452a114.12 114.12 0 1 0 80.693 33.425 113.758 113.758 0 0 0 -80.693-33.425z" fill="url(#GradientFill_1)" fill-rule="evenodd"/></svg>