<svg id="Layer_1" height="512" viewBox="0 0 512 512" width="512" xmlns="http://www.w3.org/2000/svg" xmlns:xlink="http://www.w3.org/1999/xlink" data-name="Layer 1"><linearGradient id="GradientFill_1" gradientUnits="userSpaceOnUse" x1=".002" x2="511.998" y1="256" y2="256"><stop offset="0" stop-color="#00c2f3"/><stop offset="1" stop-color="#4764af"/></linearGradient><path d="m52.864 411.822a130.31 130.31 0 0 1 129.98-127.173h146.319a130.323 130.323 0 0 1 129.98 127.173 256 256 0 1 0 -406.279 0zm384.046 25.291a255.991 255.991 0 0 1 -361.82 0v-22.434a108.087 108.087 0 0 1 107.754-107.81h146.319a108.075 108.075 0 0 1 107.747 107.81zm-180.91-206.976a67.142 67.142 0 1 1 47.532-19.648 67.047 67.047 0 0 1 -47.532 19.648zm63.271-3.93a89.467 89.467 0 1 1 26.206-63.3 89.1 89.1 0 0 1 -26.202 63.3z" fill="url(#GradientFill_1)" fill-rule="evenodd"/></svg>