<svg id="Layer_1" height="512" viewBox="0 0 512 512" width="512" xmlns="http://www.w3.org/2000/svg" xmlns:xlink="http://www.w3.org/1999/xlink" data-name="Layer 1"><linearGradient id="GradientFill_1" gradientUnits="userSpaceOnUse" x2="512" y1="256" y2="256"><stop offset="0" stop-color="#00c2f3"/><stop offset="1" stop-color="#4764af"/></linearGradient><path d="m167.72 416.415q3.741 9.166 7.892 17.571c21.224 42.963 49.7 69.537 80.388 69.537s59.164-26.574 80.388-69.537q4.146-8.394 7.892-17.571a257.867 257.867 0 0 0 -176.56 0zm168.668-338.4c-21.224-42.964-49.697-69.538-80.388-69.538s-59.164 26.574-80.388 69.538q-4.146 8.392-7.892 17.57a255.812 255.812 0 0 0 88.28 15.582 255.807 255.807 0 0 0 88.28-15.582q-3.741-9.166-7.892-17.57zm-189.179 9.013a256.256 256.256 0 0 1 -50.77-31.536 255.2 255.2 0 0 1 107.861-50.514c-18.609 14.195-35.126 35.886-48.62 63.2q-4.453 9.015-8.471 18.849zm57.091 419.994a255.205 255.205 0 0 1 -107.861-50.513 256.26 256.26 0 0 1 50.77-31.537q4.012 9.824 8.471 18.849c13.494 27.315 30.011 49.007 48.62 63.2zm160.491-82.05a256.263 256.263 0 0 1 50.771 31.536 255.2 255.2 0 0 1 -107.862 50.514c18.609-14.194 35.126-35.886 48.62-63.2q4.454-9.014 8.471-18.849zm-57.091-419.994a255.2 255.2 0 0 1 107.861 50.514 256.256 256.256 0 0 1 -50.77 31.536q-4.012-9.824-8.471-18.849c-13.494-27.315-30.011-49.006-48.62-63.2zm-190.5 262.163h-117.2a255.41 255.41 0 0 0 74.808 170.051q2.287 2.287 4.633 4.516a278.75 278.75 0 0 1 60.037-37.65c-13.178-39.517-21.244-86.448-22.278-136.917zm255.324 0h-233.043c1.011 47.476 8.451 91.445 20.588 128.4a279.262 279.262 0 0 1 191.862 0c12.137-36.959 19.577-80.928 20.588-128.4zm139.481 0h-117.2c-1.039 50.469-9.1 97.4-22.283 136.917a278.711 278.711 0 0 1 60.037 37.65q2.344-2.231 4.633-4.516a255.41 255.41 0 0 0 74.808-170.051zm-117.2-22.282h117.195a255.407 255.407 0 0 0 -74.808-170.05q-2.288-2.289-4.633-4.516a278.77 278.77 0 0 1 -60.037 37.649c13.178 39.518 21.244 86.449 22.283 136.917zm-255.324 0h233.038c-1.011-47.476-8.451-91.444-20.588-128.4a277.892 277.892 0 0 1 -95.931 16.99 277.888 277.888 0 0 1 -95.931-16.994c-12.137 36.96-19.577 80.928-20.588 128.4zm-139.481 0h117.2c1.039-50.468 9.105-97.4 22.283-136.917a278.77 278.77 0 0 1 -60.042-37.649q-2.345 2.229-4.633 4.516a255.407 255.407 0 0 0 -74.808 170.05z" fill="url(#GradientFill_1)" fill-rule="evenodd"/></svg>